# xmcd
#
# Track frame offsets: 
#        150
#        17457
#        36335
#        56420
#        81707
#        101385
#        121247
#        142992
#        164157
#        181420
#        191795
#        209995
#        225472
#
# Disc length: 3310 seconds
#
# Revision: 7
# Processed by: cddbd v1.5.2PL0 Copyright (c) Steve Scherf et al.
# Submitted via: ExactAudioCopy v0.99pb5
#
DISCID=ba0cec0d
DTITLE=The Holmes Brothers - Speaking In Tongues
DYEAR=2001
DGENRE=Blues
TTITLE0=Homeless Child
TTITLE1=Speaking In Tongues
TTITLE2=New Jerusalem
TTITLE3=I Shall Not Walk Alone
TTITLE4=Can't No Grave Hold My Body Down
TTITLE5=King Jesus Will Roll All Burdens Away
TTITLE6=Jesus Is The Way
TTITLE7=Love Train
TTITLE8=Man Of Peace
TTITLE9=Jesus Got His Hooks In Me
TTITLE10=I Want To Be Ready
TTITLE11=Thank You Jesus
TTITLE12=Farther Along
EXTD=
EXTT0=
EXTT1=
EXTT2=
EXTT3=
EXTT4=
EXTT5=
EXTT6=
EXTT7=
EXTT8=
EXTT9=
EXTT10=
EXTT11=
EXTT12=
PLAYORDER=
